<?xml version="1.0" encoding="UTF-8"?>
<svg xmlns="http://www.w3.org/2000/svg" version="1.1" width="100" height="100" viewBox="0 0 100 100"><rect x="0" y="0" width="100" height="100" fill="#ffffff"/><g transform="scale(2.041)"><g transform="translate(0,0)"><path fill-rule="evenodd" d="M9 0L9 1L8 1L8 2L10 2L10 1L12 1L12 2L11 2L11 3L13 3L13 4L12 4L12 5L11 5L11 4L9 4L9 3L8 3L8 4L9 4L9 5L8 5L8 7L9 7L9 6L10 6L10 7L11 7L11 8L12 8L12 9L11 9L11 10L12 10L12 11L10 11L10 8L6 8L6 9L5 9L5 8L0 8L0 12L1 12L1 11L2 11L2 13L3 13L3 14L2 14L2 15L0 15L0 17L1 17L1 21L0 21L0 22L1 22L1 23L0 23L0 24L1 24L1 23L2 23L2 24L4 24L4 27L8 27L8 28L6 28L6 29L5 29L5 30L4 30L4 29L3 29L3 28L2 28L2 29L0 29L0 31L2 31L2 32L3 32L3 31L4 31L4 33L2 33L2 35L0 35L0 36L1 36L1 40L0 40L0 41L3 41L3 40L4 40L4 39L2 39L2 38L4 38L4 36L5 36L5 37L7 37L7 38L5 38L5 39L7 39L7 38L8 38L8 36L6 36L6 35L7 35L7 34L8 34L8 33L9 33L9 32L11 32L11 33L12 33L12 35L10 35L10 37L9 37L9 38L10 38L10 39L12 39L12 40L11 40L11 41L10 41L10 40L9 40L9 39L8 39L8 43L9 43L9 44L8 44L8 49L12 49L12 47L11 47L11 46L12 46L12 45L13 45L13 46L14 46L14 45L13 45L13 44L14 44L14 43L11 43L11 41L12 41L12 42L15 42L15 45L16 45L16 46L15 46L15 47L13 47L13 48L15 48L15 49L16 49L16 48L18 48L18 49L19 49L19 48L21 48L21 47L22 47L22 48L23 48L23 47L22 47L22 46L21 46L21 45L23 45L23 46L24 46L24 48L26 48L26 49L27 49L27 48L29 48L29 45L27 45L27 44L28 44L28 42L27 42L27 40L30 40L30 41L29 41L29 43L31 43L31 42L33 42L33 43L32 43L32 44L30 44L30 49L32 49L32 48L31 48L31 46L32 46L32 44L33 44L33 45L35 45L35 46L33 46L33 49L34 49L34 47L35 47L35 48L36 48L36 49L37 49L37 48L38 48L38 49L39 49L39 48L38 48L38 47L39 47L39 46L41 46L41 45L43 45L43 46L42 46L42 47L40 47L40 49L41 49L41 48L43 48L43 49L44 49L44 48L45 48L45 49L49 49L49 47L48 47L48 48L46 48L46 47L47 47L47 44L49 44L49 42L48 42L48 41L49 41L49 33L48 33L48 32L43 32L43 29L42 29L42 28L41 28L41 27L44 27L44 28L46 28L46 29L47 29L47 30L45 30L45 31L49 31L49 30L48 30L48 29L47 29L47 28L46 28L46 27L49 27L49 22L47 22L47 21L49 21L49 20L45 20L45 22L43 22L43 19L41 19L41 20L40 20L40 19L39 19L39 18L33 18L33 19L32 19L32 18L31 18L31 17L32 17L32 16L33 16L33 17L34 17L34 15L35 15L35 14L36 14L36 15L39 15L39 17L41 17L41 18L43 18L43 17L44 17L44 19L45 19L45 18L46 18L46 16L45 16L45 17L44 17L44 15L46 15L46 14L47 14L47 17L48 17L48 16L49 16L49 10L45 10L45 9L46 9L46 8L45 8L45 9L44 9L44 8L43 8L43 9L42 9L42 8L41 8L41 6L40 6L40 7L39 7L39 5L38 5L38 4L37 4L37 1L38 1L38 2L39 2L39 4L40 4L40 3L41 3L41 0L40 0L40 1L38 1L38 0L37 0L37 1L36 1L36 7L35 7L35 6L34 6L34 5L33 5L33 4L35 4L35 1L33 1L33 2L32 2L32 1L31 1L31 0L29 0L29 1L31 1L31 3L33 3L33 4L32 4L32 5L31 5L31 4L30 4L30 5L29 5L29 6L28 6L28 5L27 5L27 3L29 3L29 2L27 2L27 1L26 1L26 0L23 0L23 1L22 1L22 0L21 0L21 1L22 1L22 2L20 2L20 1L19 1L19 2L20 2L20 3L19 3L19 4L18 4L18 3L17 3L17 4L18 4L18 5L19 5L19 6L18 6L18 7L17 7L17 6L16 6L16 7L15 7L15 6L14 6L14 7L13 7L13 6L12 6L12 5L13 5L13 4L15 4L15 5L16 5L16 4L15 4L15 3L16 3L16 2L15 2L15 0L14 0L14 1L12 1L12 0ZM17 0L17 2L18 2L18 0ZM23 1L23 2L22 2L22 3L20 3L20 4L19 4L19 5L20 5L20 6L19 6L19 8L21 8L21 9L18 9L18 8L17 8L17 7L16 7L16 8L17 8L17 9L15 9L15 8L13 8L13 9L15 9L15 10L13 10L13 11L12 11L12 13L14 13L14 14L12 14L12 15L13 15L13 16L12 16L12 17L13 17L13 18L14 18L14 17L15 17L15 18L16 18L16 19L15 19L15 21L13 21L13 22L11 22L11 23L10 23L10 22L9 22L9 21L12 21L12 18L11 18L11 19L10 19L10 17L11 17L11 16L10 16L10 15L9 15L9 14L11 14L11 13L10 13L10 11L9 11L9 9L6 9L6 10L7 10L7 11L6 11L6 12L8 12L8 11L9 11L9 14L8 14L8 13L6 13L6 14L5 14L5 13L4 13L4 11L3 11L3 9L1 9L1 10L2 10L2 11L3 11L3 13L4 13L4 15L3 15L3 16L1 16L1 17L2 17L2 18L3 18L3 19L6 19L6 20L8 20L8 22L9 22L9 23L10 23L10 24L9 24L9 25L10 25L10 26L9 26L9 30L8 30L8 31L10 31L10 30L11 30L11 29L12 29L12 30L13 30L13 31L14 31L14 32L13 32L13 33L15 33L15 34L17 34L17 33L18 33L18 35L15 35L15 37L13 37L13 40L12 40L12 41L15 41L15 42L17 42L17 43L18 43L18 42L19 42L19 41L20 41L20 43L19 43L19 45L21 45L21 43L22 43L22 42L21 42L21 41L20 41L20 40L21 40L21 39L22 39L22 40L25 40L25 39L28 39L28 38L26 38L26 37L29 37L29 38L30 38L30 39L33 39L33 38L34 38L34 39L36 39L36 40L35 40L35 41L34 41L34 42L35 42L35 43L33 43L33 44L35 44L35 45L36 45L36 44L39 44L39 43L37 43L37 42L40 42L40 41L37 41L37 42L35 42L35 41L36 41L36 40L39 40L39 39L41 39L41 40L45 40L45 41L46 41L46 44L45 44L45 45L46 45L46 44L47 44L47 43L48 43L48 42L47 42L47 41L48 41L48 39L47 39L47 38L48 38L48 37L46 37L46 38L45 38L45 37L43 37L43 39L41 39L41 38L42 38L42 37L41 37L41 36L44 36L44 35L45 35L45 33L42 33L42 32L40 32L40 31L41 31L41 30L42 30L42 29L41 29L41 28L40 28L40 27L37 27L37 26L39 26L39 23L40 23L40 22L41 22L41 21L38 21L38 20L39 20L39 19L36 19L36 20L35 20L35 21L34 21L34 19L33 19L33 20L30 20L30 18L29 18L29 19L28 19L28 20L27 20L27 19L26 19L26 18L27 18L27 17L26 17L26 14L27 14L27 15L29 15L29 16L28 16L28 17L31 17L31 16L32 16L32 15L33 15L33 14L35 14L35 13L36 13L36 14L39 14L39 15L40 15L40 16L42 16L42 15L44 15L44 13L45 13L45 14L46 14L46 13L45 13L45 12L47 12L47 14L48 14L48 12L47 12L47 11L45 11L45 10L44 10L44 9L43 9L43 10L41 10L41 9L40 9L40 8L39 8L39 9L38 9L38 5L37 5L37 7L36 7L36 8L37 8L37 9L36 9L36 12L34 12L34 13L33 13L33 12L31 12L31 14L30 14L30 12L27 12L27 11L26 11L26 12L25 12L25 10L27 10L27 9L28 9L28 11L30 11L30 9L31 9L31 7L32 7L32 6L33 6L33 8L32 8L32 10L31 10L31 11L32 11L32 10L33 10L33 11L35 11L35 8L34 8L34 6L33 6L33 5L32 5L32 6L31 6L31 5L30 5L30 6L29 6L29 7L28 7L28 6L27 6L27 7L28 7L28 8L27 8L27 9L22 9L22 8L21 8L21 7L22 7L22 6L21 6L21 4L23 4L23 3L24 3L24 4L25 4L25 3L27 3L27 2L26 2L26 1ZM13 2L13 3L14 3L14 2ZM24 2L24 3L25 3L25 2ZM23 5L23 8L26 8L26 5ZM11 6L11 7L12 7L12 6ZM20 6L20 7L21 7L21 6ZM24 6L24 7L25 7L25 6ZM30 6L30 7L29 7L29 9L30 9L30 7L31 7L31 6ZM47 8L47 9L48 9L48 8ZM17 9L17 10L15 10L15 11L17 11L17 12L18 12L18 13L16 13L16 12L15 12L15 13L16 13L16 14L14 14L14 16L15 16L15 17L16 17L16 16L18 16L18 17L17 17L17 19L16 19L16 20L17 20L17 21L18 21L18 22L19 22L19 23L17 23L17 24L16 24L16 23L15 23L15 25L13 25L13 23L11 23L11 24L12 24L12 25L13 25L13 26L15 26L15 25L17 25L17 26L18 26L18 27L17 27L17 28L18 28L18 29L16 29L16 27L15 27L15 29L16 29L16 30L15 30L15 31L16 31L16 32L15 32L15 33L17 33L17 32L18 32L18 33L19 33L19 34L20 34L20 33L21 33L21 30L22 30L22 31L23 31L23 32L22 32L22 33L24 33L24 34L25 34L25 35L23 35L23 34L21 34L21 35L23 35L23 36L22 36L22 37L21 37L21 38L22 38L22 39L25 39L25 37L26 37L26 36L29 36L29 37L30 37L30 38L33 38L33 37L31 37L31 36L34 36L34 35L35 35L35 36L36 36L36 39L39 39L39 38L41 38L41 37L40 37L40 36L41 36L41 35L43 35L43 34L42 34L42 33L40 33L40 32L39 32L39 31L40 31L40 30L41 30L41 29L40 29L40 28L39 28L39 29L40 29L40 30L33 30L33 29L35 29L35 28L34 28L34 27L35 27L35 26L33 26L33 27L32 27L32 24L34 24L34 23L36 23L36 24L35 24L35 25L38 25L38 24L37 24L37 23L39 23L39 22L37 22L37 20L36 20L36 21L35 21L35 22L34 22L34 23L32 23L32 24L30 24L30 22L31 22L31 21L30 21L30 20L29 20L29 21L30 21L30 22L29 22L29 23L28 23L28 24L27 24L27 22L28 22L28 21L27 21L27 22L26 22L26 19L25 19L25 20L24 20L24 17L25 17L25 14L26 14L26 13L27 13L27 14L29 14L29 15L30 15L30 14L29 14L29 13L27 13L27 12L26 12L26 13L25 13L25 12L24 12L24 10L21 10L21 13L19 13L19 10L18 10L18 9ZM39 9L39 10L38 10L38 11L39 11L39 12L40 12L40 13L39 13L39 14L40 14L40 15L41 15L41 14L43 14L43 13L44 13L44 12L43 12L43 11L44 11L44 10L43 10L43 11L41 11L41 10L40 10L40 9ZM17 10L17 11L18 11L18 10ZM39 10L39 11L40 11L40 12L41 12L41 13L40 13L40 14L41 14L41 13L43 13L43 12L41 12L41 11L40 11L40 10ZM13 11L13 12L14 12L14 11ZM22 11L22 13L21 13L21 14L22 14L22 13L24 13L24 12L23 12L23 11ZM36 12L36 13L37 13L37 12ZM6 14L6 15L4 15L4 17L5 17L5 18L6 18L6 19L7 19L7 18L8 18L8 17L9 17L9 15L7 15L7 14ZM17 14L17 15L20 15L20 14ZM23 14L23 16L22 16L22 15L21 15L21 16L22 16L22 17L24 17L24 14ZM6 15L6 16L7 16L7 15ZM15 15L15 16L16 16L16 15ZM19 16L19 17L18 17L18 19L17 19L17 20L18 20L18 21L19 21L19 22L20 22L20 23L19 23L19 24L22 24L22 23L21 23L21 20L22 20L22 22L25 22L25 21L24 21L24 20L23 20L23 19L21 19L21 20L20 20L20 18L21 18L21 17L20 17L20 16ZM35 16L35 17L37 17L37 16ZM6 17L6 18L7 18L7 17ZM47 18L47 19L49 19L49 18ZM8 19L8 20L9 20L9 19ZM13 19L13 20L14 20L14 19ZM2 20L2 21L1 21L1 22L2 22L2 21L3 21L3 20ZM19 20L19 21L20 21L20 20ZM4 21L4 22L5 22L5 21ZM6 21L6 22L7 22L7 21ZM15 21L15 22L16 22L16 21ZM36 22L36 23L37 23L37 22ZM45 22L45 25L46 25L46 26L45 26L45 27L46 27L46 26L47 26L47 25L46 25L46 24L47 24L47 22ZM5 23L5 26L8 26L8 23ZM23 23L23 26L26 26L26 23ZM41 23L41 26L44 26L44 23ZM6 24L6 25L7 25L7 24ZM17 24L17 25L18 25L18 26L20 26L20 27L19 27L19 29L21 29L21 25L18 25L18 24ZM24 24L24 25L25 25L25 24ZM28 24L28 25L27 25L27 28L26 28L26 27L25 27L25 28L23 28L23 29L22 29L22 30L23 30L23 31L27 31L27 30L30 30L30 31L31 31L31 32L32 32L32 33L31 33L31 34L28 34L28 33L29 33L29 32L24 32L24 33L27 33L27 34L26 34L26 35L29 35L29 36L30 36L30 35L34 35L34 34L36 34L36 31L33 31L33 32L32 32L32 29L33 29L33 28L32 28L32 27L31 27L31 26L29 26L29 28L28 28L28 25L29 25L29 24ZM42 24L42 25L43 25L43 24ZM1 25L1 26L0 26L0 27L1 27L1 26L2 26L2 27L3 27L3 25ZM10 27L10 28L11 28L11 27ZM12 27L12 28L14 28L14 27ZM36 28L36 29L37 29L37 28ZM6 29L6 30L5 30L5 31L6 31L6 32L5 32L5 34L3 34L3 36L4 36L4 35L5 35L5 34L7 34L7 33L6 33L6 32L7 32L7 31L6 31L6 30L7 30L7 29ZM13 29L13 30L14 30L14 29ZM23 29L23 30L25 30L25 29ZM30 29L30 30L31 30L31 29ZM2 30L2 31L3 31L3 30ZM17 30L17 31L20 31L20 30ZM11 31L11 32L12 32L12 31ZM37 31L37 34L40 34L40 35L41 35L41 34L40 34L40 33L39 33L39 32L38 32L38 31ZM34 32L34 33L32 33L32 34L34 34L34 33L35 33L35 32ZM0 33L0 34L1 34L1 33ZM47 33L47 35L46 35L46 36L48 36L48 33ZM13 35L13 36L14 36L14 35ZM19 35L19 37L18 37L18 36L17 36L17 37L18 37L18 38L19 38L19 39L17 39L17 40L18 40L18 41L17 41L17 42L18 42L18 41L19 41L19 39L20 39L20 38L19 38L19 37L20 37L20 35ZM36 35L36 36L37 36L37 38L39 38L39 37L38 37L38 36L39 36L39 35ZM24 36L24 37L25 37L25 36ZM10 37L10 38L12 38L12 37ZM15 37L15 38L14 38L14 39L15 39L15 40L16 40L16 39L15 39L15 38L16 38L16 37ZM45 39L45 40L46 40L46 41L47 41L47 40L46 40L46 39ZM6 40L6 41L7 41L7 40ZM32 40L32 41L33 41L33 40ZM9 41L9 42L10 42L10 41ZM23 41L23 44L26 44L26 41ZM41 41L41 44L44 44L44 41ZM24 42L24 43L25 43L25 42ZM42 42L42 43L43 43L43 42ZM35 43L35 44L36 44L36 43ZM11 44L11 45L10 45L10 46L11 46L11 45L12 45L12 44ZM16 44L16 45L18 45L18 44ZM24 45L24 46L25 46L25 47L26 47L26 48L27 48L27 45L26 45L26 46L25 46L25 45ZM37 45L37 46L36 46L36 48L37 48L37 47L38 47L38 46L39 46L39 45ZM17 46L17 47L20 47L20 46ZM43 46L43 48L44 48L44 47L45 47L45 46ZM9 47L9 48L11 48L11 47ZM15 47L15 48L16 48L16 47ZM0 0L0 7L7 7L7 0ZM1 1L1 6L6 6L6 1ZM2 2L2 5L5 5L5 2ZM42 0L42 7L49 7L49 0ZM43 1L43 6L48 6L48 1ZM44 2L44 5L47 5L47 2ZM0 42L0 49L7 49L7 42ZM1 43L1 48L6 48L6 43ZM2 44L2 47L5 47L5 44Z" fill="#000000"/></g></g></svg>
