<?xml version="1.0" encoding="UTF-8"?>
<svg xmlns="http://www.w3.org/2000/svg" version="1.1" width="100" height="100" viewBox="0 0 100 100"><rect x="0" y="0" width="100" height="100" fill="#ffffff"/><g transform="scale(2.041)"><g transform="translate(0,0)"><path fill-rule="evenodd" d="M8 0L8 4L11 4L11 5L12 5L12 7L11 7L11 6L10 6L10 5L8 5L8 7L9 7L9 8L12 8L12 9L11 9L11 11L12 11L12 9L13 9L13 10L14 10L14 9L15 9L15 12L14 12L14 11L13 11L13 12L11 12L11 13L10 13L10 11L8 11L8 10L10 10L10 9L7 9L7 8L4 8L4 9L2 9L2 8L0 8L0 10L1 10L1 11L0 11L0 13L1 13L1 15L2 15L2 16L1 16L1 17L2 17L2 16L3 16L3 19L4 19L4 18L5 18L5 20L6 20L6 21L7 21L7 20L6 20L6 19L8 19L8 21L9 21L9 22L5 22L5 21L4 21L4 20L2 20L2 19L1 19L1 20L0 20L0 21L1 21L1 22L0 22L0 23L3 23L3 25L4 25L4 26L3 26L3 27L2 27L2 26L1 26L1 28L0 28L0 29L1 29L1 30L0 30L0 36L1 36L1 40L0 40L0 41L3 41L3 40L4 40L4 39L2 39L2 37L3 37L3 38L5 38L5 39L10 39L10 38L11 38L11 37L12 37L12 38L15 38L15 37L16 37L16 35L17 35L17 37L18 37L18 38L19 38L19 39L20 39L20 38L21 38L21 36L22 36L22 37L23 37L23 39L22 39L22 40L18 40L18 41L17 41L17 38L16 38L16 39L13 39L13 41L12 41L12 39L11 39L11 41L10 41L10 40L6 40L6 41L8 41L8 42L9 42L9 43L8 43L8 45L9 45L9 46L10 46L10 47L8 47L8 49L11 49L11 47L12 47L12 48L13 48L13 49L17 49L17 48L18 48L18 49L20 49L20 48L21 48L21 49L22 49L22 48L21 48L21 46L20 46L20 47L19 47L19 48L18 48L18 47L17 47L17 48L15 48L15 47L16 47L16 46L19 46L19 45L21 45L21 44L22 44L22 45L23 45L23 49L26 49L26 48L25 48L25 47L24 47L24 45L25 45L25 46L26 46L26 47L27 47L27 49L28 49L28 47L29 47L29 46L26 46L26 45L27 45L27 44L29 44L29 43L27 43L27 42L30 42L30 43L32 43L32 45L31 45L31 44L30 44L30 47L32 47L32 49L33 49L33 48L34 48L34 49L35 49L35 48L36 48L36 49L38 49L38 48L40 48L40 49L41 49L41 48L40 48L40 47L41 47L41 46L40 46L40 45L42 45L42 47L43 47L43 49L45 49L45 48L44 48L44 47L43 47L43 45L47 45L47 43L48 43L48 41L49 41L49 39L46 39L46 37L47 37L47 36L48 36L48 38L49 38L49 35L48 35L48 32L49 32L49 31L46 31L46 30L48 30L48 29L49 29L49 28L47 28L47 27L48 27L48 25L49 25L49 24L47 24L47 22L44 22L44 21L45 21L45 19L44 19L44 17L47 17L47 18L46 18L46 21L49 21L49 19L48 19L48 16L47 16L47 14L45 14L45 12L43 12L43 9L44 9L44 10L45 10L45 11L46 11L46 13L47 13L47 12L48 12L48 14L49 14L49 12L48 12L48 9L49 9L49 8L45 8L45 9L44 9L44 8L43 8L43 9L42 9L42 11L41 11L41 10L40 10L40 9L41 9L41 6L40 6L40 7L39 7L39 5L38 5L38 7L37 7L37 4L36 4L36 3L37 3L37 0L36 0L36 3L35 3L35 1L33 1L33 0L29 0L29 1L30 1L30 2L29 2L29 3L28 3L28 2L27 2L27 3L28 3L28 5L27 5L27 4L26 4L26 3L25 3L25 2L26 2L26 1L27 1L27 0L26 0L26 1L25 1L25 0L23 0L23 1L21 1L21 0L19 0L19 2L18 2L18 0L17 0L17 1L16 1L16 0L15 0L15 1L16 1L16 4L17 4L17 3L18 3L18 7L19 7L19 5L20 5L20 7L21 7L21 6L22 6L22 8L21 8L21 9L20 9L20 8L18 8L18 9L17 9L17 11L18 11L18 9L19 9L19 10L20 10L20 12L18 12L18 13L15 13L15 12L16 12L16 8L17 8L17 6L16 6L16 5L15 5L15 2L14 2L14 3L13 3L13 2L11 2L11 3L10 3L10 1L9 1L9 0ZM11 0L11 1L12 1L12 0ZM13 0L13 1L14 1L14 0ZM40 0L40 1L38 1L38 2L39 2L39 4L40 4L40 3L41 3L41 0ZM23 1L23 2L24 2L24 1ZM19 2L19 3L20 3L20 4L21 4L21 5L22 5L22 4L25 4L25 3L21 3L21 2ZM33 2L33 3L30 3L30 4L29 4L29 5L28 5L28 6L27 6L27 8L28 8L28 9L27 9L27 11L26 11L26 9L25 9L25 10L23 10L23 13L22 13L22 14L23 14L23 15L25 15L25 17L22 17L22 15L21 15L21 16L19 16L19 15L20 15L20 14L21 14L21 13L19 13L19 14L18 14L18 15L17 15L17 14L16 14L16 15L12 15L12 14L10 14L10 13L9 13L9 12L8 12L8 11L6 11L6 10L7 10L7 9L5 9L5 10L2 10L2 9L1 9L1 10L2 10L2 15L3 15L3 13L6 13L6 14L4 14L4 16L5 16L5 17L6 17L6 18L8 18L8 19L10 19L10 20L9 20L9 21L10 21L10 20L12 20L12 21L15 21L15 22L14 22L14 23L13 23L13 22L12 22L12 23L13 23L13 25L11 25L11 23L10 23L10 22L9 22L9 26L10 26L10 27L6 27L6 28L5 28L5 27L3 27L3 29L2 29L2 30L1 30L1 31L3 31L3 33L1 33L1 35L2 35L2 36L3 36L3 37L5 37L5 38L8 38L8 37L9 37L9 36L11 36L11 35L12 35L12 36L13 36L13 37L15 37L15 36L14 36L14 35L13 35L13 34L12 34L12 32L11 32L11 30L13 30L13 31L14 31L14 32L13 32L13 33L14 33L14 34L17 34L17 35L18 35L18 34L20 34L20 35L19 35L19 36L18 36L18 37L20 37L20 36L21 36L21 35L23 35L23 34L24 34L24 35L27 35L27 34L28 34L28 35L29 35L29 34L28 34L28 33L30 33L30 32L31 32L31 33L32 33L32 31L33 31L33 33L34 33L34 35L35 35L35 37L34 37L34 36L33 36L33 37L34 37L34 39L33 39L33 38L32 38L32 35L33 35L33 34L31 34L31 36L28 36L28 37L27 37L27 38L24 38L24 40L25 40L25 39L27 39L27 38L28 38L28 39L30 39L30 37L31 37L31 39L32 39L32 40L31 40L31 42L32 42L32 40L35 40L35 41L34 41L34 42L33 42L33 43L35 43L35 42L36 42L36 43L37 43L37 44L38 44L38 45L39 45L39 43L37 43L37 42L36 42L36 38L35 38L35 37L36 37L36 35L37 35L37 36L39 36L39 37L41 37L41 38L42 38L42 40L43 40L43 39L45 39L45 42L47 42L47 41L46 41L46 39L45 39L45 38L44 38L44 37L43 37L43 38L42 38L42 36L41 36L41 35L43 35L43 34L41 34L41 33L40 33L40 32L42 32L42 31L43 31L43 33L45 33L45 34L44 34L44 36L45 36L45 37L46 37L46 36L45 36L45 34L46 34L46 35L47 35L47 34L46 34L46 33L47 33L47 32L46 32L46 31L45 31L45 30L46 30L46 29L45 29L45 27L47 27L47 24L45 24L45 27L43 27L43 30L42 30L42 28L41 28L41 27L38 27L38 25L39 25L39 26L40 26L40 25L39 25L39 24L40 24L40 23L38 23L38 25L36 25L36 23L37 23L37 22L36 22L36 23L35 23L35 21L36 21L36 20L35 20L35 19L37 19L37 20L39 20L39 21L40 21L40 22L41 22L41 21L43 21L43 19L39 19L39 18L38 18L38 17L37 17L37 18L35 18L35 17L36 17L36 14L35 14L35 13L36 13L36 11L37 11L37 12L38 12L38 13L40 13L40 14L39 14L39 15L40 15L40 14L41 14L41 13L43 13L43 14L42 14L42 15L43 15L43 16L40 16L40 18L42 18L42 17L44 17L44 13L43 13L43 12L41 12L41 13L40 13L40 11L39 11L39 12L38 12L38 9L40 9L40 8L37 8L37 9L36 9L36 4L34 4L34 2ZM11 3L11 4L12 4L12 5L13 5L13 3ZM30 4L30 5L29 5L29 6L28 6L28 8L29 8L29 10L28 10L28 11L27 11L27 12L26 12L26 15L27 15L27 17L25 17L25 19L24 19L24 21L25 21L25 20L26 20L26 19L27 19L27 18L28 18L28 19L32 19L32 20L30 20L30 23L31 23L31 22L32 22L32 26L33 26L33 27L31 27L31 24L29 24L29 27L31 27L31 28L30 28L30 31L31 31L31 29L33 29L33 30L34 30L34 29L35 29L35 31L34 31L34 33L35 33L35 35L36 35L36 34L37 34L37 31L39 31L39 32L38 32L38 35L41 35L41 34L39 34L39 32L40 32L40 31L42 31L42 30L39 30L39 29L38 29L38 28L37 28L37 27L36 27L36 26L34 26L34 25L35 25L35 24L34 24L34 21L33 21L33 20L34 20L34 19L35 19L35 18L33 18L33 19L32 19L32 18L31 18L31 17L33 17L33 16L35 16L35 14L34 14L34 13L35 13L35 12L34 12L34 11L33 11L33 10L32 10L32 9L33 9L33 8L35 8L35 6L34 6L34 7L33 7L33 4ZM23 5L23 8L26 8L26 5ZM30 5L30 6L29 6L29 7L30 7L30 9L31 9L31 8L32 8L32 6L31 6L31 5ZM9 6L9 7L10 7L10 6ZM13 6L13 7L12 7L12 8L13 8L13 9L14 9L14 8L15 8L15 7L16 7L16 6L15 6L15 7L14 7L14 6ZM24 6L24 7L25 7L25 6ZM30 6L30 7L31 7L31 6ZM13 7L13 8L14 8L14 7ZM21 9L21 11L22 11L22 9ZM35 9L35 10L36 10L36 9ZM46 9L46 11L47 11L47 9ZM29 10L29 11L30 11L30 10ZM31 10L31 11L32 11L32 10ZM3 11L3 12L4 12L4 11ZM24 11L24 13L25 13L25 11ZM6 12L6 13L7 13L7 14L6 14L6 15L5 15L5 16L6 16L6 17L7 17L7 16L6 16L6 15L8 15L8 18L9 18L9 16L10 16L10 17L11 17L11 16L12 16L12 17L13 17L13 18L11 18L11 19L12 19L12 20L13 20L13 19L14 19L14 20L15 20L15 21L16 21L16 19L17 19L17 21L18 21L18 22L16 22L16 23L14 23L14 25L13 25L13 26L11 26L11 25L10 25L10 26L11 26L11 27L10 27L10 29L9 29L9 28L8 28L8 29L7 29L7 28L6 28L6 29L5 29L5 28L4 28L4 30L3 30L3 31L4 31L4 33L3 33L3 34L4 34L4 36L5 36L5 37L8 37L8 36L9 36L9 35L8 35L8 33L9 33L9 34L11 34L11 33L10 33L10 30L11 30L11 29L14 29L14 30L15 30L15 31L16 31L16 30L17 30L17 32L14 32L14 33L17 33L17 34L18 34L18 33L20 33L20 34L21 34L21 33L24 33L24 34L25 34L25 33L24 33L24 32L23 32L23 31L22 31L22 30L20 30L20 31L19 31L19 32L18 32L18 30L19 30L19 29L22 29L22 28L20 28L20 27L19 27L19 28L18 28L18 29L15 29L15 28L17 28L17 27L18 27L18 25L19 25L19 24L18 24L18 22L19 22L19 23L20 23L20 22L21 22L21 23L22 23L22 25L20 25L20 26L22 26L22 27L26 27L26 28L25 28L25 29L23 29L23 30L26 30L26 28L27 28L27 29L28 29L28 30L29 30L29 29L28 29L28 27L27 27L27 26L28 26L28 20L27 20L27 21L26 21L26 22L23 22L23 21L22 21L22 22L21 22L21 20L23 20L23 19L22 19L22 17L19 17L19 16L18 16L18 17L17 17L17 18L15 18L15 16L14 16L14 17L13 17L13 16L12 16L12 15L10 15L10 14L8 14L8 12ZM28 12L28 13L27 13L27 15L28 15L28 18L29 18L29 17L31 17L31 15L33 15L33 14L31 14L31 15L30 15L30 13L31 13L31 12ZM33 12L33 13L34 13L34 12ZM13 13L13 14L14 14L14 13ZM28 14L28 15L29 15L29 16L30 16L30 15L29 15L29 14ZM37 14L37 15L38 15L38 14ZM18 17L18 18L17 18L17 19L18 19L18 18L19 18L19 17ZM20 18L20 19L19 19L19 20L18 20L18 21L20 21L20 20L21 20L21 18ZM47 19L47 20L48 20L48 19ZM1 20L1 21L2 21L2 22L3 22L3 21L2 21L2 20ZM40 20L40 21L41 21L41 20ZM32 21L32 22L33 22L33 21ZM5 23L5 26L8 26L8 23ZM23 23L23 26L26 26L26 23ZM41 23L41 26L44 26L44 23ZM1 24L1 25L2 25L2 24ZM6 24L6 25L7 25L7 24ZM17 24L17 25L14 25L14 26L13 26L13 27L12 27L12 28L13 28L13 27L14 27L14 28L15 28L15 27L17 27L17 25L18 25L18 24ZM24 24L24 25L25 25L25 24ZM33 24L33 25L34 25L34 24ZM42 24L42 25L43 25L43 24ZM33 27L33 28L35 28L35 29L36 29L36 27ZM40 28L40 29L41 29L41 28ZM6 29L6 30L4 30L4 31L6 31L6 32L7 32L7 33L6 33L6 34L5 34L5 35L6 35L6 36L8 36L8 35L6 35L6 34L7 34L7 33L8 33L8 32L9 32L9 29L8 29L8 30L7 30L7 29ZM44 29L44 30L43 30L43 31L44 31L44 32L45 32L45 33L46 33L46 32L45 32L45 31L44 31L44 30L45 30L45 29ZM6 30L6 31L7 31L7 30ZM36 30L36 31L35 31L35 33L36 33L36 31L37 31L37 30ZM26 31L26 32L27 32L27 33L28 33L28 32L29 32L29 31ZM17 32L17 33L18 33L18 32ZM20 32L20 33L21 33L21 32ZM23 36L23 37L24 37L24 36ZM28 37L28 38L29 38L29 37ZM37 39L37 41L39 41L39 42L40 42L40 40L41 40L41 39ZM27 40L27 41L29 41L29 40ZM11 41L11 42L12 42L12 44L11 44L11 45L10 45L10 43L9 43L9 45L10 45L10 46L11 46L11 45L12 45L12 46L13 46L13 48L14 48L14 45L12 45L12 44L13 44L13 43L14 43L14 44L15 44L15 45L18 45L18 44L21 44L21 43L22 43L22 42L21 42L21 43L19 43L19 42L20 42L20 41L18 41L18 43L17 43L17 41L13 41L13 42L12 42L12 41ZM23 41L23 44L26 44L26 41ZM41 41L41 44L44 44L44 41ZM24 42L24 43L25 43L25 42ZM42 42L42 43L43 43L43 42ZM15 43L15 44L17 44L17 43ZM34 44L34 46L35 46L35 47L37 47L37 48L38 48L38 47L37 47L37 46L35 46L35 45L36 45L36 44ZM48 44L48 45L49 45L49 44ZM32 45L32 47L33 47L33 45ZM39 46L39 47L40 47L40 46ZM46 46L46 49L49 49L49 48L48 48L48 47L49 47L49 46ZM30 48L30 49L31 49L31 48ZM0 0L0 7L7 7L7 0ZM1 1L1 6L6 6L6 1ZM2 2L2 5L5 5L5 2ZM42 0L42 7L49 7L49 0ZM43 1L43 6L48 6L48 1ZM44 2L44 5L47 5L47 2ZM0 42L0 49L7 49L7 42ZM1 43L1 48L6 48L6 43ZM2 44L2 47L5 47L5 44Z" fill="#000000"/></g></g></svg>
